<svg width="387" height="332" viewBox="0 0 387 332" fill="none" xmlns="http://www.w3.org/2000/svg">
<g clip-path="url(#clip0_6222_13948)">
<path d="M0 140.359C10.021 145.069 21.2349 147.777 29.9436 154.607C35.1927 158.728 39.2488 163.792 41.754 169.797C42.4698 171.445 43.5435 172.976 44.0207 174.742C45.3329 179.452 50.1048 180.277 53.5644 182.514C53.803 182.396 54.0416 182.278 54.2802 182.161C53.9223 181.336 53.6837 180.394 53.2066 179.57C49.2697 172.976 44.7365 166.735 41.3961 159.906C38.8909 154.725 37.4593 149.073 36.1471 143.538C35.4313 140.241 35.9085 136.591 35.7892 133.176C35.5506 128.113 33.7611 126.465 28.6313 124.816C25.6489 123.874 23.0244 121.637 20.3998 119.87C18.6104 118.693 17.1788 117.044 15.6279 115.631C11.8104 112.334 11.4525 107.742 10.856 103.621C10.4982 100.677 11.2139 97.4978 11.6911 94.5541C12.2876 90.4328 13.0034 86.3115 13.9578 82.1902C14.1964 81.2482 15.0314 80.3062 15.6279 79.4819C16.463 79.953 17.656 80.3062 18.2525 81.1305C23.1437 87.1357 28.1541 93.0233 32.8067 99.2641C34.7155 101.855 35.7892 104.916 37.4593 108.213C38.1751 107.153 38.7716 106.565 39.1295 105.74C41.1575 100.559 42.947 95.2606 45.3329 90.1973C48.1961 84.192 48.7926 78.6577 44.6172 72.7702C42.3505 69.5909 41.8733 65.5874 42.4698 61.7016C43.3049 56.4028 44.3786 51.2218 46.6452 46.1585C48.3154 42.3905 48.6733 38.0337 49.5083 34.0302C49.7469 33.0882 49.6276 32.1461 49.8662 31.2041C50.3434 30.0266 51.1785 29.3201 52.6101 30.2621C61.9152 36.5029 69.1924 46.9827 64.5398 59.3466C64.1819 60.2886 63.7047 61.2306 62.9889 62.0548C60.0065 65.7051 56.9048 69.3554 54.0416 73.1234C52.7294 74.7719 51.8943 76.6559 50.8206 78.4222C51.1785 78.6577 51.5364 79.011 51.8943 79.2465C52.8487 78.6577 53.9223 78.1867 54.6381 77.4802C59.41 71.9459 63.824 66.1761 68.7152 60.6418C71.1011 57.9336 73.845 55.5785 76.4695 53.1058C81.3607 48.5135 86.3712 44.1567 91.0238 39.4467C93.2904 37.0917 94.3641 33.9124 93.0518 30.8509C90.1887 23.5503 93.6483 17.8983 98.1816 12.5995C101.761 8.36049 106.413 5.41672 111.901 3.76821C114.764 2.82621 117.985 2.59071 121.683 1.8842C120.371 4.59247 119.297 6.35873 118.581 8.36049C116.673 13.1883 115.241 18.1338 112.855 22.7261C111.424 25.4344 108.56 27.5539 106.294 29.9089C105.459 30.7331 104.743 31.6751 103.908 32.4994C104.027 32.7349 104.146 32.9704 104.385 33.2059C105.339 33.0882 106.413 33.0882 107.248 32.6171C113.929 29.4379 120.371 26.0231 125.381 20.6066C126.694 19.1936 129.08 18.7226 130.869 17.7806C136.834 14.8368 142.679 11.893 149.718 11.1865C153.655 10.7155 157.592 9.538 161.528 8.47824C165.346 7.41849 169.163 6.12323 173.339 4.82797C173.577 8.24274 171.072 10.7155 168.925 13.1883C161.648 21.3131 151.985 25.4344 140.771 26.2586C136.118 26.6119 131.346 26.7296 126.694 26.8474C122.16 27.0829 118.939 29.5556 115.241 31.4396C129.795 30.7331 144.35 29.7911 158.307 33.9124C158.307 34.2657 158.427 34.5012 158.427 34.8544C157.472 35.3254 156.399 36.2674 155.444 36.2674C148.764 36.6207 143.634 40.5065 137.908 42.8615C126.694 47.4537 115.36 48.0425 104.146 42.7437C100.568 41.0952 97.2272 41.684 94.1255 43.568C86.3712 48.278 78.9747 53.2235 73.3678 60.2886C69.7889 64.8809 65.3749 68.8844 61.3188 73.2412C60.603 74.0654 60.0065 75.1252 59.8872 76.3027C64.8977 72.8879 67.1643 67.0004 72.8906 64.1744C78.3783 61.4661 83.6273 58.5223 89.8308 57.4626C96.0343 56.5206 102.118 55.6963 108.68 54.872C107.725 58.0513 106.055 60.0531 103.431 61.3483C102.596 61.7016 101.88 62.1726 101.164 62.8791C96.2729 67.5891 91.501 72.2992 86.6098 76.8914C83.9852 79.3642 80.7642 80.6595 76.9467 81.366C72.4134 82.308 67.7608 82.1902 63.2275 82.6612C57.382 83.1322 52.968 85.9582 49.7469 90.6683C43.4242 99.8528 40.5611 110.097 38.6523 120.695C38.533 121.166 38.533 121.519 38.6523 121.99C38.6523 122.225 38.7716 122.461 38.8909 122.814C41.1575 122.343 41.754 120.695 41.754 119.046C42.1119 111.981 46.7645 107.507 52.2522 103.621C60.4837 97.9688 70.6239 96.2026 80.0484 93.141C80.7642 92.9055 81.7186 93.3765 82.5537 93.612C82.1958 94.2008 81.9572 94.9073 81.5993 95.4961C79.2133 99.0286 76.7081 102.443 74.5608 106.094C70.2661 113.394 64.5398 119.164 55.9504 122.108C52.6101 123.285 49.0312 123.756 45.4522 124.463C43.4242 124.816 42.3505 125.876 41.6347 127.642C38.2944 136.591 39.3681 145.305 42.4698 154.018C43.7821 157.668 45.8101 161.083 47.8382 164.616C46.7645 156.844 47.8382 149.544 52.8487 143.067C57.6205 136.827 63.7047 131.999 71.1011 128.584C71.3397 128.702 71.5783 128.937 71.8169 129.055C71.459 130.233 70.8625 131.292 70.7432 132.47C70.2661 138.828 69.7889 145.187 69.6696 151.663C69.5503 158.257 67.045 163.792 62.1538 168.502C58.4556 172.034 57.7398 176.744 59.8872 181.336C63.3468 188.755 68.9538 194.642 75.7537 199.47C79.9291 202.414 84.1045 205.475 88.2799 208.419C89.2343 209.126 90.308 209.479 91.501 210.185C92.8132 207.595 91.1431 206.064 89.5922 204.769C84.9396 201.001 81.9572 196.291 79.8098 190.992C77.066 184.162 77.066 177.097 80.8835 170.621C83.7466 165.793 87.4449 161.436 91.0238 156.962C91.501 156.373 92.9325 156.138 93.8869 156.255C94.3641 156.255 95.0799 157.551 95.0799 158.139C94.6027 164.027 97.2272 169.326 99.3746 174.625C103.073 183.927 103.789 193.229 97.7044 202.061C95.5571 205.24 96.8693 210.068 99.9711 212.776C107.01 218.899 115.718 222.431 124.188 226.317C133.374 230.556 143.037 233.264 152.82 235.855C153.774 236.09 154.848 235.973 155.802 236.09C155.921 235.855 156.041 235.502 156.16 235.266C155.086 234.677 154.013 233.853 152.82 233.618C146.855 232.558 141.606 230.321 136.715 227.024C132.062 223.844 128.602 219.959 126.336 214.895C123.115 207.713 120.371 200.53 120.729 192.64C120.848 190.05 121.445 187.342 122.041 184.869C122.16 184.28 123.234 183.456 123.95 183.338C124.666 183.22 125.978 183.691 126.216 184.162C128.841 188.755 133.613 191.227 137.669 194.407C144.23 199.47 150.553 204.651 155.444 211.245C158.069 214.778 159.858 218.546 159.262 223.02C159.023 224.315 159.262 225.728 159.262 227.141C159.381 231.38 161.29 234.56 165.346 236.797C172.027 240.447 179.304 242.331 186.581 244.215C188.847 244.804 191.114 245.275 193.261 246.099C198.511 248.101 203.64 247.866 208.889 246.099C215.57 243.862 222.37 241.743 228.931 239.505C230.482 239.034 231.914 237.974 233.107 237.032C235.731 235.031 235.97 233.147 234.538 230.203C231.437 223.727 232.51 217.133 236.089 211.245C239.429 205.946 243.724 201.236 247.9 196.526C249.928 194.171 252.791 192.405 255.057 190.168C257.682 187.577 259.71 184.633 260.187 180.983C260.307 180.159 261.38 179.335 261.977 178.51C262.812 179.335 264.124 180.159 264.243 180.983C264.84 186.046 265.317 191.227 265.317 196.291C265.198 205.358 263.17 214.071 258.398 222.196C255.773 226.788 252.075 230.085 246.587 231.616C244.917 232.087 243.247 232.793 241.815 233.618C240.742 234.324 239.907 235.502 239.072 236.444C239.191 236.679 239.43 236.915 239.549 237.032C240.384 236.915 241.338 236.915 242.173 236.561C252.552 232.558 263.17 228.908 273.31 224.433C277.724 222.549 281.303 219.017 285.12 216.073C289.057 213.011 287.745 209.126 286.671 205.24C285.12 199.352 284.762 193.582 287.745 187.813C290.489 182.632 292.755 177.215 294.903 171.799C295.618 170.032 295.38 168.031 295.738 166.147C295.857 165.322 296.215 164.616 296.454 163.909C297.169 164.263 297.885 164.498 298.482 164.969C306.952 172.152 308.622 181.572 307.787 191.463C307.31 196.997 304.089 201.589 299.555 205.358C297.05 207.477 294.664 209.479 292.278 211.716C291.443 212.54 290.966 213.6 290.369 214.542C290.608 214.778 290.966 215.131 291.204 215.366C292.994 214.189 294.903 213.247 296.692 211.952C300.987 208.772 305.162 205.593 309.218 202.296C315.78 197.115 322.341 191.934 326.755 184.987C328.544 182.161 329.499 178.864 330.453 175.684C331.05 173.565 329.857 171.916 327.59 170.974C320.432 168.148 316.018 163.203 314.825 156.02C313.752 149.661 313.394 143.067 312.32 136.709C311.843 134.118 310.411 131.646 309.338 129.173C308.98 128.231 308.264 127.407 307.667 126.229C311.485 125.758 314.348 127.524 316.973 128.937C326.159 133.765 332.123 141.183 335.106 150.486C336.537 154.725 336.18 159.199 334.271 163.556C333.555 165.087 333.436 166.853 333.078 168.502C332.959 168.973 333.316 169.561 333.555 170.032C334.151 169.797 334.987 169.561 335.225 169.208C336.418 166.971 337.492 164.734 338.327 162.378C339.997 157.551 341.667 152.605 342.86 147.66C344.053 142.479 344.888 137.298 345.246 131.999C345.365 129.291 344.411 126.465 343.337 123.874C342.383 121.637 340.474 119.87 337.492 119.635C328.067 118.928 319.955 115.278 313.99 108.92C308.741 103.385 304.804 96.7913 300.271 90.6683C300.032 90.315 299.913 89.7263 299.675 88.902C300.629 89.1375 301.345 89.1375 301.941 89.373C308.622 91.4925 315.422 93.612 322.102 95.7316C327.829 97.4978 333.078 99.9706 336.895 104.327C338.446 106.211 339.281 108.684 340.236 110.921C341.429 113.747 342.144 116.573 343.457 119.399C343.815 120.106 345.008 120.459 345.723 121.048C345.962 120.812 346.32 120.577 346.558 120.459C344.888 113.63 343.337 106.682 341.548 99.8528C340.594 96.0848 339.401 92.3168 338.208 88.6665C336.657 84.192 333.316 81.1305 328.783 79.1287C327.948 78.7755 326.755 78.4222 325.801 78.54C315.064 80.3062 306.594 75.7139 298.243 70.5329C292.517 66.8826 287.148 62.4081 279.752 61.4661C277.962 61.2306 276.173 61.1128 274.384 60.9951C274.264 60.7596 274.264 60.5241 274.145 60.2886C275.696 59.6998 277.247 58.7578 278.917 58.5223C289.415 56.4028 300.033 54.872 310.411 58.7578C314.348 60.2886 318.046 62.4081 321.864 64.4099C322.699 64.8809 323.176 66.0584 323.773 66.8826C325.204 69.2376 326.516 71.7104 328.187 73.9477C329.022 75.0074 330.573 75.7139 331.766 76.6559C332.123 76.3027 332.481 76.0672 332.839 75.7139C331.527 73.8299 330.573 71.7104 328.902 69.9441C321.148 61.4661 312.678 53.6945 302.776 47.2182C298.243 44.2745 293.113 41.9195 287.864 40.0354C285.478 39.0934 282.019 39.2112 279.513 40.0354C269.731 43.568 260.068 44.8632 250.166 41.0952C244.201 38.8579 237.998 37.5627 231.437 38.5047C231.079 38.5047 230.721 38.5047 230.363 38.3869C230.244 38.3869 230.005 38.2692 229.528 37.9159C236.089 33.7947 243.247 31.4396 250.524 29.4379C258.04 27.3184 265.556 28.9669 273.071 30.6154C271.52 29.7911 269.97 28.9669 268.419 28.1426C267.345 27.6716 266.033 27.4361 265.198 26.8474C259.829 23.0793 253.387 23.1971 247.184 22.6083C238.356 21.7841 230.959 18.1338 224.756 12.4818C221.654 9.65575 218.91 6.59423 216.047 3.53271C215.331 2.82621 214.974 1.8842 214.377 1.05995C214.496 0.824444 214.616 0.588942 214.854 0.471191C216.047 0.706693 217.121 1.05995 218.314 1.29545C223.444 2.59071 228.573 4.23922 233.823 5.18122C243.843 6.94748 252.552 10.3623 257.921 18.9581C258.636 20.0178 259.71 20.9598 260.784 21.5486C264.721 23.4326 268.657 25.1989 272.713 26.9651C273.548 27.3184 274.622 27.3184 275.457 27.5539C272.236 20.6066 269.134 13.777 266.033 6.94748C266.271 6.71198 266.51 6.47648 266.868 6.24098C267.703 6.47648 268.777 6.47648 269.492 6.94748C275.099 10.1268 280.945 12.9528 285.955 16.7208C290.25 20.0178 293.59 24.2568 297.169 28.3781C298.124 29.4379 298.362 31.3219 298.124 32.7349C297.408 36.9739 299.197 40.0354 302.418 42.7437C307.667 47.1005 313.036 51.4573 318.404 55.814C318.881 56.1673 319.597 56.2851 321.029 56.8738C318.643 46.394 321.029 36.8562 324.25 27.4361C324.608 27.3184 324.846 27.3184 325.204 27.2006C325.681 28.0249 326.636 28.7314 326.755 29.5556C327.709 35.4432 331.646 39.9177 334.748 44.8632C337.253 49.1023 339.997 53.459 341.071 58.0513C342.144 62.7613 341.667 67.9424 338.446 72.1814C336.657 74.5364 337.015 77.0092 337.611 79.5997C337.73 80.1885 338.088 80.7772 338.327 81.2482C342.383 88.431 345.127 95.9671 346.797 103.856C346.916 104.327 347.036 104.916 347.393 105.269C347.751 105.74 348.348 105.976 348.825 106.211C349.183 105.74 349.779 105.269 349.66 104.916C349.064 99.2641 351.33 94.2008 353.836 89.373C356.221 84.7807 360.039 80.7772 363.737 76.7737C366.362 73.9477 369.583 71.7104 372.565 69.2376C372.923 69.4731 373.281 69.5909 373.639 69.8264C373.52 70.7684 373.52 71.7104 373.4 72.5347C372.923 74.6542 371.969 76.7737 371.849 79.0109C371.492 84.663 371.372 90.315 371.253 95.8493C371.014 103.974 368.032 111.039 361.828 116.809C360.516 117.986 358.369 118.811 356.46 119.164C352.523 119.753 351.092 122.108 350.614 125.287C350.018 128.584 349.899 131.881 349.183 135.178C347.99 140.948 346.439 146.835 345.127 152.605C344.888 153.665 344.65 154.725 345.008 156.255C345.843 155.784 346.916 155.549 347.513 154.842C354.909 145.776 365.527 141.183 376.263 136.709C379.127 135.531 382.109 134.707 385.091 133.765C385.569 133.647 386.284 133.765 387.716 133.883C386.046 135.414 384.972 136.591 383.779 137.533C380.916 139.77 379.007 142.361 377.576 145.776C375.667 150.603 372.565 154.96 369.941 159.67C367.078 164.851 361.828 168.148 357.057 171.563C354.909 173.094 351.569 173.8 348.706 173.8C341.309 173.918 337.611 178.157 334.151 183.103C332.004 186.046 329.857 189.108 327.113 191.698C320.909 197.704 314.587 203.474 308.025 209.243C306.117 210.892 303.611 212.069 301.464 213.482C300.748 213.953 300.032 214.307 299.317 214.778C299.436 215.131 299.675 215.366 299.794 215.72C301.583 215.013 303.492 214.66 304.924 213.6C308.383 211.245 311.724 208.772 314.825 206.182C320.909 200.883 328.544 198.646 336.418 197.468C345.723 196.173 355.148 195.82 364.572 195.113C364.93 195.113 365.407 195.231 366.6 195.466C365.169 196.526 364.095 197.233 363.26 197.939C360.516 199.941 357.534 201.707 355.148 203.945C345.843 212.658 335.464 219.723 322.102 222.078C317.927 222.785 313.513 222.549 309.576 220.547C304.804 218.075 299.913 218.663 294.783 219.605C288.699 220.783 284.047 224.433 278.559 226.553C272.594 228.908 266.51 230.792 260.426 232.911C258.04 233.735 255.773 234.913 253.507 235.973C253.626 236.326 253.626 236.679 253.745 237.032C254.819 236.915 256.012 237.032 257.085 236.679C261.857 235.266 266.391 233.382 271.282 232.44C281.78 230.438 292.517 230.792 303.134 232.205C311.366 233.382 319.359 235.266 327.709 237.386C325.323 238.328 322.938 239.505 320.432 240.329C312.917 242.685 305.52 245.511 297.766 246.924C289.296 248.572 280.587 249.396 271.878 249.514C266.749 249.632 261.142 248.337 257.443 244.569C253.387 240.565 248.377 240.212 243.366 241.271C232.749 243.391 222.131 246.099 211.633 248.572C210.798 248.808 210.082 249.514 209.247 249.985C210.082 250.456 210.798 251.163 211.633 251.398C224.279 255.048 237.044 258.345 249.45 262.467C264.601 267.412 280.229 271.416 294.187 278.834C300.271 282.013 304.924 287.077 307.19 293.671C304.804 294.848 302.776 294.024 300.868 292.964C293.59 288.961 286.552 284.368 278.917 281.071C266.271 275.419 253.268 270.474 240.265 265.528C229.647 261.407 218.672 257.874 208.054 253.871C201.851 251.516 196.125 251.634 189.802 253.871C180.855 257.05 171.549 259.405 162.483 262.349C155.802 264.586 149.241 267.294 142.679 269.767C132.42 273.771 122.16 277.656 112.139 281.778C107.367 283.78 102.834 286.252 98.5395 288.961C95.6764 290.727 93.4097 293.2 90.7852 295.319C89.7115 296.143 86.7291 295.437 86.2519 294.142C86.1326 293.788 86.0133 293.317 86.0133 292.846C85.7747 288.49 92.0974 281.071 96.6307 279.658C101.403 278.245 106.055 276.126 110.827 274.477C125.501 269.532 140.174 264.586 154.967 259.994C165.465 256.815 176.321 254.46 186.939 251.634C188.49 251.28 189.921 250.692 191.472 250.221C191.472 249.867 191.472 249.514 191.472 249.161C188.967 248.337 186.462 247.277 183.956 246.57C172.981 243.509 162.125 240.094 151.03 237.503C146.616 236.444 141.844 236.797 137.192 237.032C135.641 237.15 133.971 238.563 132.778 239.859C127.052 246.217 119.655 249.043 110.827 248.808C102.118 248.69 93.6483 247.748 85.4168 245.275C80.287 243.744 75.5151 241.507 70.5046 239.623C68.7152 238.916 66.8064 238.563 65.017 237.857C64.5398 237.621 63.824 236.797 63.9433 236.326C64.0626 235.855 64.8977 235.384 65.4942 235.266C74.6801 233.853 83.8659 232.205 93.0518 231.027C100.448 230.085 107.964 229.614 115.36 229.025C116.315 228.908 117.269 228.79 118.939 228.672C117.985 227.73 117.627 227.141 117.15 226.906C109.515 223.844 101.761 220.665 94.0062 217.721C92.5746 217.133 90.4273 217.25 88.8764 217.957C79.9291 221.607 71.1011 221.136 61.6767 219.605C52.0136 217.957 45.2136 212.305 37.4593 207.595C32.4488 204.416 26.9612 201.943 21.7121 199.117C20.9963 198.763 20.5191 198.057 19.9226 197.468C20.6384 196.997 21.4735 196.055 22.1893 196.055C32.5681 195.82 42.947 194.407 53.2066 196.644C59.41 198.057 65.6135 199.47 72.4134 201.118C70.6239 199.117 68.7152 197.35 67.2836 195.349C63.5854 190.285 57.1434 188.99 52.2522 185.575C47.361 182.161 42.2312 181.219 36.3856 180.748C31.0173 180.277 26.1261 177.804 22.1893 174.271C13.8385 166.735 7.63502 157.786 3.93681 147.542C3.10173 145.422 1.78946 143.538 0.596486 141.419C0 141.301 0 140.83 0 140.359ZM130.392 198.292C129.915 198.41 129.437 198.528 128.96 198.646C129.08 199.823 128.96 201.236 129.437 202.296C133.255 210.656 139.339 217.604 146.258 223.962C146.736 224.433 147.69 224.433 148.406 224.551C148.644 224.315 148.883 224.08 149.122 223.844C142.918 215.366 136.715 206.771 130.392 198.292ZM258.756 196.879C258.398 196.762 258.159 196.526 257.801 196.408C256.728 198.175 255.415 199.823 254.819 201.707C252.433 209.832 248.854 217.486 244.201 224.786C243.605 225.611 243.605 226.788 243.247 228.319C248.973 225.846 259.829 202.649 258.756 196.879ZM262.692 240.212C269.492 241.86 298.72 240.918 301.583 238.916C288.103 239.152 275.338 238.21 262.692 240.212ZM363.499 87.2535C363.141 87.1357 362.783 87.018 362.306 86.9003C361.709 87.8423 360.993 88.6665 360.635 89.6085C358.727 95.1428 356.937 100.795 355.267 106.329C354.909 107.389 355.625 108.802 355.864 109.979C356.699 108.92 357.892 108.095 358.249 106.918C359.562 103.032 360.516 99.0286 361.59 95.1428C362.186 92.5523 362.783 89.844 363.499 87.2535ZM365.169 148.484C359.92 149.426 348.825 163.321 349.899 167.206C350.734 166.735 351.688 166.5 352.165 165.911C356.341 160.377 360.516 154.725 365.169 148.484ZM90.5466 192.876C91.8588 185.575 91.1431 178.981 89.7115 172.387C86.6098 176.509 86.9677 189.461 90.5466 192.876ZM327.948 158.61C330.334 154.607 323.892 140.477 318.881 138.828C321.864 145.422 324.966 152.016 327.948 158.61ZM314.467 214.071C318.285 215.013 334.987 207.124 337.015 203.591C328.306 205.358 321.864 210.656 314.467 214.071ZM19.3261 93.0233C18.6104 96.2026 25.4103 110.568 28.0348 111.746C28.7506 109.155 22.07 94.554 19.3261 93.0233ZM16.2244 153.9C21.4735 160.377 27.677 165.911 34.4769 170.857C29.705 164.027 23.8594 158.139 16.2244 153.9ZM296.573 194.642C296.931 194.76 297.408 194.878 297.766 194.995C298.362 194.171 299.317 193.347 299.675 192.405C300.629 189.343 301.345 186.164 301.941 182.985C302.18 181.807 302.18 180.63 301.941 179.452C301.822 178.864 300.987 178.393 300.51 177.804C300.152 178.393 299.555 178.864 299.317 179.57C298.959 180.983 298.72 182.396 298.482 183.809C297.766 187.459 297.169 190.992 296.573 194.642ZM333.555 111.746C328.664 105.976 321.387 103.15 314.587 99.8528C319.478 105.623 326.994 107.978 333.555 111.746ZM132.778 22.2551C132.897 22.4906 132.897 22.7261 133.016 23.0793C136.237 24.3746 150.553 19.9001 152.7 16.2498C146.02 18.2516 139.339 20.2533 132.778 22.2551ZM49.5083 116.338C55.4732 111.863 61.5574 107.271 67.8801 102.561C62.0345 103.032 49.1504 112.923 49.5083 116.338ZM65.2556 210.656C65.3749 210.303 65.4942 210.068 65.6135 209.714C63.2275 207.242 46.168 202.414 41.754 203.473C50.1048 205.946 57.7398 208.301 65.2556 210.656ZM50.8206 63.5856C54.3995 60.2886 56.6662 48.6313 54.2802 45.8052C51.775 51.6928 51.8943 57.8158 50.8206 63.5856ZM317.688 70.2974C311.724 66.6471 305.759 63.1146 298.243 62.6436C304.089 66.6471 310.769 68.6489 317.688 70.2974ZM57.382 158.61C59.1714 153.194 61.0802 147.777 62.8696 142.479C58.9328 143.892 55.4732 154.607 57.382 158.61ZM271.043 35.5609C267.464 33.0882 252.194 32.7349 249.45 35.5609C256.847 35.5609 264.005 35.5609 271.043 35.5609ZM99.9711 25.4344C103.192 24.3746 110.708 13.1883 110.589 10.2445C106.294 15.0723 102.238 19.3113 99.9711 25.4344ZM274.98 15.5433C274.98 19.6646 283.927 28.4959 287.268 27.7894C283.092 23.7858 279.275 19.9001 274.98 15.5433ZM245.752 18.4871C245.991 18.2516 246.11 17.8983 246.349 17.6628C245.394 15.661 235.015 10.8333 232.272 11.7753C236.805 14.0125 241.338 16.2498 245.752 18.4871ZM326.994 50.3975C325.92 54.5188 328.067 60.5241 330.93 62.4081C331.646 60.6418 329.022 52.2815 326.994 50.3975ZM105.697 239.623C105.697 239.387 105.697 239.152 105.697 238.916C99.7325 238.916 93.7676 238.916 87.922 238.916C87.922 239.152 87.922 239.387 87.922 239.623C93.7676 239.623 99.7325 239.623 105.697 239.623ZM71.6976 74.4187C71.9362 74.7719 72.1748 75.1252 72.4134 75.3607C75.9923 72.8879 79.5712 70.5329 83.1501 68.0601C82.9116 67.8246 82.7923 67.5891 82.5537 67.3536C78.0204 68.5311 74.9186 71.5927 71.6976 74.4187ZM82.3151 208.419C83.0309 212.658 88.1606 215.837 91.2624 214.071C88.1606 212.187 85.2975 210.303 82.3151 208.419ZM115.599 37.9159C115.599 38.1514 115.718 38.5047 115.718 38.7402C120.132 38.2692 124.427 37.7982 128.841 37.3272C124.069 35.0899 120.013 37.5627 115.599 37.9159Z" fill="#BF2920"/>
<path d="M121.086 99.9739L121.444 113.751H120.131C119.535 110.336 118.103 107.51 115.717 105.39C113.331 103.271 110.826 102.211 108.082 102.211C105.935 102.211 104.265 102.8 103.072 103.86C101.879 104.919 101.282 106.215 101.282 107.745C101.282 108.687 101.521 109.512 101.879 110.218C102.475 111.16 103.43 112.102 104.742 113.044C105.696 113.751 107.963 114.928 111.423 116.577C116.314 118.932 119.654 121.169 121.324 123.289C122.994 125.408 123.83 127.881 123.83 130.589C123.83 134.004 122.517 137.065 119.773 139.538C117.03 142.011 113.57 143.306 109.395 143.306C108.082 143.306 106.77 143.188 105.696 142.953C104.503 142.717 103.072 142.246 101.282 141.422C100.328 141.069 99.4929 140.833 98.7771 140.833C98.1806 140.833 97.7035 141.069 97.107 141.422C96.5105 141.775 96.0333 142.482 95.6754 143.306H94.4824V127.645H95.6754C96.6298 132.002 98.2999 135.417 100.924 137.772C103.549 140.127 106.293 141.187 109.275 141.187C111.542 141.187 113.451 140.598 114.763 139.303C116.195 138.007 116.791 136.594 116.791 134.946C116.791 134.004 116.552 133.062 115.956 132.12C115.479 131.178 114.644 130.354 113.57 129.529C112.496 128.705 110.588 127.645 107.844 126.35C104.026 124.466 101.282 122.935 99.6122 121.64C97.942 120.345 96.6298 118.932 95.7947 117.283C94.9596 115.635 94.4824 113.868 94.4824 111.984C94.4824 108.687 95.6754 105.861 98.1806 103.506C100.686 101.151 103.788 99.9739 107.486 99.9739C108.798 99.9739 110.11 100.092 111.423 100.445C112.377 100.68 113.57 101.151 115.002 101.858C116.433 102.564 117.387 102.8 117.984 102.8C118.461 102.8 118.938 102.682 119.296 102.329C119.654 101.976 119.893 101.269 120.131 99.9739H121.086Z" fill="#BF2920"/>
<path d="M143.631 123.641V135.181C143.631 137.418 143.75 138.831 144.108 139.42C144.346 140.009 144.824 140.48 145.539 140.833C146.255 141.186 147.568 141.304 149.476 141.304V142.481H128.122V141.304C130.031 141.304 131.343 141.068 132.059 140.715C132.775 140.362 133.252 139.891 133.49 139.302C133.729 138.713 133.968 137.3 133.968 135.063V108.216C133.968 105.979 133.848 104.566 133.49 103.977C133.252 103.388 132.775 102.917 132.059 102.564C131.343 102.211 130.031 102.093 128.122 102.093V100.916H146.375C152.459 100.916 156.753 101.975 159.378 104.095C162.002 106.214 163.315 108.805 163.315 112.102C163.315 114.81 162.48 117.047 160.81 119.049C159.139 120.933 156.753 122.228 153.771 122.935C151.862 123.406 148.403 123.641 143.631 123.641ZM143.631 103.388V121.286C144.346 121.286 144.824 121.404 145.182 121.404C147.687 121.404 149.596 120.698 151.027 119.167C152.339 117.636 153.055 115.399 153.055 112.337C153.055 109.276 152.339 107.039 151.027 105.626C149.715 104.213 147.687 103.506 144.943 103.506H143.631V103.388Z" fill="#BF2920"/>
<path d="M189.796 100.329C196.477 100.093 201.965 101.977 206.14 106.099C210.316 110.22 212.463 115.283 212.463 121.524C212.463 126.823 210.912 131.415 207.81 135.419C203.635 140.717 197.789 143.308 190.274 143.308C182.758 143.308 176.912 140.835 172.737 135.772C169.516 131.768 167.846 127.058 167.846 121.524C167.846 115.401 169.993 110.22 174.168 106.099C178.344 102.095 183.593 100.093 189.796 100.329ZM190.154 102.331C186.337 102.331 183.354 104.215 181.446 108.1C179.775 111.28 178.94 115.872 178.94 121.76C178.94 128.825 180.253 134.006 182.758 137.42C184.547 139.775 186.933 140.953 190.154 140.953C192.302 140.953 194.091 140.482 195.523 139.422C197.312 138.127 198.744 136.007 199.817 133.181C200.772 130.355 201.368 126.587 201.368 121.995C201.368 116.461 200.891 112.457 199.817 109.749C198.744 107.041 197.431 105.157 195.881 103.979C194.091 102.919 192.302 102.331 190.154 102.331Z" fill="#BF2920"/>
<path d="M231.435 123.523V135.18C231.435 137.418 231.554 138.831 231.793 139.419C232.031 140.008 232.508 140.479 233.224 140.832C233.94 141.186 235.252 141.303 237.161 141.303V142.481H215.688V141.303C217.596 141.303 218.909 141.068 219.624 140.715C220.34 140.361 220.817 139.89 221.056 139.302C221.294 138.713 221.533 137.3 221.533 135.063V108.215C221.533 105.978 221.414 104.565 221.056 103.976C220.817 103.388 220.34 102.917 219.624 102.563C218.909 102.21 217.596 102.092 215.688 102.092V100.915H235.252C240.382 100.915 244.08 101.268 246.347 101.975C248.733 102.681 250.642 103.976 252.073 105.86C253.505 107.744 254.34 109.864 254.34 112.454C254.34 115.516 253.266 117.989 250.999 119.991C249.568 121.286 247.54 122.228 245.035 122.817L255.175 136.829C256.487 138.595 257.442 139.773 258.038 140.244C258.873 140.832 259.827 141.186 261.02 141.303V142.481H247.778L234.298 123.641H231.435V123.523ZM231.435 103.152V121.286H233.224C236.087 121.286 238.235 121.05 239.666 120.462C241.098 119.873 242.171 119.049 243.007 117.636C243.842 116.222 244.2 114.456 244.2 112.337C244.2 109.157 243.484 106.802 241.933 105.389C240.382 103.859 237.996 103.152 234.656 103.152H231.435Z" fill="#BF2920"/>
<path d="M286.792 130.589H271.999L270.209 134.593C269.613 135.888 269.374 137.065 269.374 137.89C269.374 139.067 269.851 139.891 270.806 140.48C271.402 140.833 272.715 141.069 274.981 141.187V142.364H261.023V141.187C262.574 140.951 263.767 140.362 264.722 139.303C265.676 138.243 266.869 136.241 268.301 133.062L283.332 99.9739H283.929L299.079 134.004C300.511 137.183 301.704 139.303 302.658 140.127C303.374 140.716 304.328 141.069 305.641 141.187V142.364H285.36V141.187H286.195C287.865 141.187 288.939 140.951 289.655 140.48C290.132 140.127 290.371 139.656 290.371 139.067C290.371 138.714 290.251 138.361 290.132 137.89C290.132 137.654 289.774 136.948 289.178 135.652L286.792 130.589ZM285.718 128.352L279.515 114.104L273.072 128.352H285.718Z" fill="#BF2920"/>
</g>
<path d="M191.289 296.754L192.103 307.25H191.289C190.467 304.635 189.405 302.665 188.103 301.34C186.226 299.427 183.815 298.471 180.87 298.471C176.854 298.471 173.799 300.147 171.706 303.498C169.954 306.327 169.078 309.695 169.078 313.602C169.078 316.774 169.66 319.668 170.822 322.283C171.985 324.899 173.505 326.82 175.381 328.046C177.272 329.256 179.211 329.861 181.195 329.861C182.358 329.861 183.482 329.706 184.567 329.395C185.653 329.085 186.699 328.627 187.707 328.022V318.409C187.707 316.741 187.583 315.654 187.335 315.147C187.103 314.624 186.73 314.232 186.219 313.97C185.723 313.692 184.839 313.553 183.567 313.553V312.621H195.777V313.553H195.196C193.987 313.553 193.157 313.978 192.708 314.828C192.397 315.433 192.242 316.627 192.242 318.409V328.586C190.459 329.6 188.7 330.343 186.963 330.818C185.226 331.292 183.296 331.529 181.172 331.529C175.079 331.529 170.45 329.469 167.287 325.349C164.915 322.259 163.729 318.695 163.729 314.657C163.729 311.73 164.396 308.926 165.729 306.245C167.311 303.057 169.481 300.605 172.241 298.888C174.551 297.466 177.28 296.754 180.428 296.754C181.575 296.754 182.614 296.852 183.544 297.049C184.49 297.245 185.823 297.678 187.544 298.348C188.413 298.692 188.994 298.863 189.289 298.863C189.583 298.863 189.831 298.724 190.033 298.447C190.25 298.152 190.382 297.588 190.428 296.754H191.289Z" fill="#BF2920"/>
<path d="M224.035 297.515L224.384 305.313H223.5C223.33 303.94 223.097 302.959 222.802 302.37C222.322 301.422 221.678 300.727 220.872 300.286C220.081 299.828 219.035 299.599 217.732 299.599H213.29V325.006C213.29 327.049 213.499 328.324 213.918 328.831C214.507 329.518 215.414 329.861 216.639 329.861H217.732V330.769H204.359V329.861H205.476C206.809 329.861 207.755 329.436 208.313 328.586C208.654 328.063 208.825 326.869 208.825 325.006V299.599H205.034C203.561 299.599 202.514 299.714 201.894 299.942C201.088 300.253 200.398 300.85 199.824 301.733C199.251 302.616 198.909 303.809 198.801 305.313H197.917L198.289 297.515H224.035Z" fill="#BF2920"/>
<defs>
<clipPath id="clip0_6222_13948">
<rect width="387" height="295.554" fill="white" transform="translate(0 0.471191)"/>
</clipPath>
</defs>
</svg>
