<svg width="302" height="250" viewBox="0 0 302 250" fill="none" xmlns="http://www.w3.org/2000/svg">
<path d="M121.271 117.121L119.073 115.633L118.897 113.311C119.034 113.844 119.251 114.31 119.452 114.735C119.527 114.891 119.794 115.336 120.088 115.747C120.334 116.115 120.847 116.664 120.847 116.664L121.271 117.121Z" fill="#828282"/>
<path d="M115.313 117.342L117.389 118.815V121.123C117.27 120.584 117.107 120.132 116.904 119.708C116.702 119.285 116.459 118.89 116.177 118.466C116.081 118.246 115.623 117.722 115.623 117.722L115.313 117.342Z" fill="#828282"/>
<path d="M143.073 129.658L141.81 131.753L139.901 130.341C139.901 130.341 140.339 130.603 140.688 130.629C141.037 130.656 141.036 130.717 141.358 130.675C141.681 130.633 141.997 130.455 142.184 130.341C142.371 130.227 142.815 129.688 142.815 129.688L143.073 129.658Z" fill="#828282"/>
<path d="M139.076 137.235L140.339 135.139L142.248 136.551C142.248 136.551 141.81 136.29 141.461 136.263C141.112 136.236 141.113 136.175 140.791 136.217C140.468 136.259 140.152 136.438 139.965 136.551C139.778 136.665 139.334 137.204 139.334 137.204L139.076 137.235Z" fill="#828282"/>
<path d="M234.877 198.491L261.937 213.008C261.937 213.008 263.952 214.2 265.876 213.953C267.8 213.706 267.987 213.516 269.012 212.321C270.037 211.126 269.924 210.649 270.325 209.486C270.726 208.324 270.836 206.136 270.836 206.136L276.379 102.368C276.379 102.368 276.144 99.7408 275.504 97.9012C274.864 96.0617 273.024 94.1216 273.024 94.1216L258.436 82.6968L257.707 82.2673" stroke="#333333" stroke-width="4.41513"/>
<path d="M93.9745 64.9849C93.9745 64.9849 102.696 81.5027 102.933 82.1816C103.17 82.8604 103.322 83.8448 103.225 84.5867C103.129 85.3286 97.3773 95.4783 96.6607 96.3552C95.9441 97.232 95.7092 97.2653 95.0561 97.5577C94.403 97.8501 93.6151 98.0316 92.795 97.9872C91.9749 97.9434 90.2422 97.2142 90.2422 97.2142" stroke="#999999" stroke-width="4"/>
<path d="M122.919 97.3856C122.919 97.3856 119.912 96.6341 118.928 96.9961C117.944 97.3582 117.466 97.8107 117.002 98.4209C116.538 99.0311 116.244 99.9647 116.208 100.822C116.172 101.679 120.147 133.12 120.147 133.12C120.147 133.12 120.49 134.805 121.241 135.783C121.992 136.762 129.556 142.14 129.556 142.14C129.556 142.14 130.498 142.726 131.671 142.484C132.845 142.242 133.349 141.539 133.349 141.539L146.331 127.966C146.331 127.966 147.134 127.158 148.738 126.764C150.343 126.37 155.959 126.678 155.959 126.678C155.959 126.678 157.16 126.704 157.856 127.537C158.551 128.37 158.585 129.942 158.585 129.942C158.585 129.942 158.493 134.935 158.658 136.814C158.823 138.694 159.029 139.815 159.387 141.195C159.745 142.576 160.019 143.618 160.773 145.061C161.527 146.504 162.963 148.487 164.055 149.614C165.148 150.74 167.119 151.933 167.119 151.933" stroke="#999999" stroke-width="5"/>
<path d="M231.583 78.6932C231.583 78.6932 225.429 84.2833 223.791 85.961C222.153 87.6387 221.238 89.1393 221.238 89.1393L214.82 100.049C214.82 100.049 213.701 101.93 213.069 102.54C212.438 103.15 211.999 103.575 211.173 103.742C210.346 103.91 208.328 103.227 208.328 103.227L202.822 101.589L201.481 101.771" stroke="#828282" stroke-width="4"/>
<path d="M90.2424 60.4487C89.4262 59.8079 88.3461 59.5896 88.3461 59.5896L75.6549 59.4178C75.6549 59.4178 73.9452 58.9379 73.3209 58.387C72.6966 57.8361 72.32 57.0267 72.0081 56.3254C71.6961 55.6241 71.4245 54.2637 71.4245 54.2637L69.8199 41.5504C69.8199 41.5504 69.4487 40.0976 68.7988 39.1453C68.472 38.6663 67.9455 38.0988 67.3789 37.5682" stroke="#999999" stroke-width="4"/>
<g filter="url(#filter0_d_6235_14685)">
<path d="M91.6664 61.9828C95.2366 66.0023 104.101 76.4261 104.101 76.4261C104.101 76.4261 130.446 105.578 131.671 106.32C132.896 107.061 135.97 109.054 137.798 109.756C139.626 110.457 139.822 110.641 142.466 110.786C145.11 110.932 150.217 109.764 153.552 109.584C156.888 109.403 157.928 109.157 162.451 109.584C166.973 110.011 180.539 113.02 180.539 113.02C180.539 113.02 181.944 113.444 183.53 113.277C185.116 113.111 186.447 111.903 186.447 111.903L200.232 102.368C200.232 102.368 201.465 101.288 202.566 101.681C203.667 102.074 211.465 108.209 211.465 108.209C211.465 108.209 212.224 108.916 212.632 110.786C213.039 112.657 212.34 114.566 212.34 114.566L208.11 126.936C208.11 126.936 207.17 129.48 206.359 131.059C205.548 132.637 204.172 134.811 203.15 136.299C202.128 137.787 201.376 138.529 200.232 139.993C199.745 141.113 199.604 141.416 199.722 142.57C199.839 143.723 200.515 145.211 201.399 146.349C202.284 147.488 203.494 148.429 204.9 149.098C206.307 149.767 208.001 150.002 209.714 150.129C211.427 150.256 213.413 150.233 215.112 149.785C216.81 149.338 217.972 148.717 219.78 147.552C221.587 146.387 224.106 144.619 225.761 142.57C227.415 140.52 228.564 137.865 229.553 135.526C230.542 133.186 231.315 130.913 231.741 128.654C232.168 126.394 232.179 122.125 232.179 122.125L229.407 85.8751C229.407 85.8751 229.218 84.3103 229.48 83.2981C229.743 82.286 229.823 81.6131 231.012 79.8621C232.201 78.1111 236.102 74.8206 237.868 73.849C239.635 72.8775 239.868 73.0514 240.932 72.99C241.995 72.9285 244.141 73.5055 244.141 73.5055L277.546 93.6062C277.546 93.6062 278.574 94.4455 279.37 95.9255C280.165 97.4056 280.026 99.6192 280.026 99.6192L273.753 216.444C273.753 216.444 273.492 219.086 273.243 219.88C272.993 220.674 272.593 221.219 272.222 221.77C271.851 222.322 271.308 222.823 269.888 223.059C268.468 223.294 266.897 222.285 266.897 222.285L141.591 133.808L94.6326 100.445L70.2576 83.1263C70.2576 83.1263 67.6588 82.0076 66.319 81.9238C64.9791 81.8396 63.6598 82.0062 62.3804 82.611C61.1009 83.2158 59.8381 84.3582 58.8794 85.5316C57.9206 86.7049 57.1248 87.8585 56.6912 89.483C56.2576 91.1076 56.3235 93.7085 56.5454 94.9807C56.7673 96.2528 61.651 111.817 61.651 111.817C61.651 111.817 62.1457 114.257 62.0887 115.425C62.0313 116.593 61.8451 117.364 61.3593 118.689C60.8735 120.014 59.9554 121.516 59.0252 122.555C58.095 123.593 57.3409 124.271 55.8889 125.046C54.437 125.822 52.6067 125.733 52.6067 125.733L14.5333 116.799C14.5333 116.799 13.0494 116.309 12.3452 115.597C11.6409 114.884 10.9668 113.768 10.5946 112.504C10.2226 111.241 10.0823 110.262 10.3029 108.209C10.5235 106.157 12.7827 104.43 12.7827 104.43L31.4548 95.4961C31.4548 95.4961 34.2123 94.3669 35.3934 93.0909C36.5747 91.8148 37.7779 89.8363 38.384 88.0228C38.9901 86.2091 39.3545 84.4829 39.478 82.6109C39.6015 80.7389 39.107 77.958 38.8945 76.7697C38.682 75.5815 30.7254 57.6997 30.7254 57.6997C30.7254 57.6997 30.2323 55.4559 30.3607 54.3496C30.4892 53.2432 30.9537 52.0872 31.4548 51.1712C31.9559 50.2553 33.497 48.7661 33.497 48.7661L59.7546 35.3655C59.7546 35.3655 61.7245 34.7642 62.7451 34.936C63.7655 35.108 64.7612 35.5588 65.7355 36.2246C66.3715 36.6591 67.2054 37.3649 67.9959 38.1454C68.3595 38.5193 79.8095 49.9978 79.8095 49.9978L91.5159 61.7724L91.6664 61.9828Z" fill="#C4C4C4" fill-opacity="0.1"/>
<path d="M91.6664 61.9828C95.2366 66.0023 104.101 76.4261 104.101 76.4261C104.101 76.4261 130.446 105.578 131.671 106.32C132.896 107.061 135.97 109.054 137.798 109.756C139.626 110.457 139.822 110.641 142.466 110.786C145.11 110.932 150.217 109.764 153.552 109.584C156.888 109.403 157.928 109.157 162.451 109.584C166.973 110.011 180.539 113.02 180.539 113.02C180.539 113.02 181.944 113.444 183.53 113.277C185.116 113.111 186.447 111.903 186.447 111.903L200.232 102.368C200.232 102.368 201.465 101.288 202.566 101.681C203.667 102.074 211.465 108.209 211.465 108.209C211.465 108.209 212.224 108.916 212.632 110.786C213.039 112.657 212.34 114.566 212.34 114.566L208.11 126.936C208.11 126.936 207.17 129.48 206.359 131.059C205.548 132.637 204.172 134.811 203.15 136.299C202.128 137.787 201.376 138.529 200.232 139.993C199.745 141.113 199.604 141.416 199.722 142.57C199.839 143.723 200.515 145.211 201.399 146.349C202.284 147.488 203.494 148.429 204.9 149.098C206.307 149.767 208.001 150.002 209.714 150.129C211.427 150.256 213.413 150.233 215.112 149.785C216.81 149.338 217.972 148.717 219.78 147.552C221.587 146.387 224.106 144.619 225.761 142.57C227.415 140.52 228.564 137.865 229.553 135.526C230.542 133.186 231.315 130.913 231.741 128.654C232.168 126.394 232.179 122.125 232.179 122.125L229.407 85.8751C229.407 85.8751 229.218 84.3103 229.48 83.2981C229.743 82.286 229.823 81.6131 231.012 79.8621C232.201 78.1111 236.102 74.8206 237.868 73.849C239.635 72.8775 239.868 73.0514 240.932 72.99C241.995 72.9285 244.141 73.5055 244.141 73.5055L277.546 93.6062C277.546 93.6062 278.574 94.4455 279.37 95.9255C280.165 97.4056 280.026 99.6192 280.026 99.6192L273.753 216.444C273.753 216.444 273.492 219.086 273.243 219.88C272.993 220.674 272.593 221.219 272.222 221.77C271.851 222.322 271.308 222.823 269.888 223.059C268.468 223.294 266.897 222.285 266.897 222.285L141.591 133.808L94.6326 100.445L70.2576 83.1263C70.2576 83.1263 67.6588 82.0076 66.319 81.9238C64.9791 81.8396 63.6598 82.0062 62.3804 82.611C61.1009 83.2158 59.8381 84.3582 58.8794 85.5316C57.9206 86.7049 57.1248 87.8585 56.6912 89.483C56.2576 91.1076 56.3235 93.7085 56.5454 94.9807C56.7673 96.2528 61.651 111.817 61.651 111.817C61.651 111.817 62.1457 114.257 62.0887 115.425C62.0313 116.593 61.8451 117.364 61.3593 118.689C60.8735 120.014 59.9554 121.516 59.0252 122.555C58.095 123.593 57.3409 124.271 55.8889 125.046C54.437 125.822 52.6067 125.733 52.6067 125.733L14.5333 116.799C14.5333 116.799 13.0494 116.309 12.3452 115.597C11.6409 114.884 10.9668 113.768 10.5946 112.504C10.2226 111.241 10.0823 110.262 10.3029 108.209C10.5235 106.157 12.7827 104.43 12.7827 104.43L31.4548 95.4961C31.4548 95.4961 34.2123 94.3669 35.3934 93.0909C36.5747 91.8148 37.7779 89.8363 38.384 88.0228C38.9901 86.2091 39.3545 84.4829 39.478 82.6109C39.6015 80.7389 39.107 77.958 38.8945 76.7697C38.682 75.5815 30.7254 57.6997 30.7254 57.6997C30.7254 57.6997 30.2323 55.4559 30.3607 54.3496C30.4892 53.2432 30.9537 52.0872 31.4548 51.1712C31.9559 50.2553 33.497 48.7661 33.497 48.7661L59.7546 35.3655C59.7546 35.3655 61.7245 34.7642 62.7451 34.936C63.7655 35.108 64.7612 35.5588 65.7355 36.2246C66.3715 36.6591 67.2054 37.3649 67.9959 38.1454C68.3595 38.5193 79.8095 49.9978 79.8095 49.9978L91.5159 61.7724L91.6664 61.9828Z" stroke="white" stroke-width="4"/>
</g>
<path d="M118.188 85.1041L121.695 79.7589L111.277 74.8997L118.188 85.1041Z" fill="#DC1C11" stroke="#DC1C11" stroke-width="2.94342"/>
<path d="M67.6814 25.2348C67.6814 26.7217 67.2011 28.1477 66.3463 29.1992C65.4915 30.2506 64.3321 30.8412 63.1232 30.8412C61.9142 30.8412 60.7548 30.2506 59.9 29.1992C59.0452 28.1477 58.5649 26.7217 58.5649 25.2348C58.5649 23.7479 59.0452 22.3219 59.9 21.2705C60.7548 20.2191 61.9142 19.6284 63.1232 19.6284C64.3321 19.6284 65.4915 20.2191 66.3463 21.2705C67.2011 22.3219 67.6814 23.7479 67.6814 25.2348Z" fill="white" stroke="black" stroke-width="1.39814" stroke-miterlimit="0" stroke-linecap="square" stroke-linejoin="round"/>
<path d="M8.66417 129.962C11.1816 129.962 13.2224 127.452 13.2224 124.355C13.2224 121.259 11.1816 118.749 8.66417 118.749C6.14674 118.749 4.10596 121.259 4.10596 124.355C4.10596 127.452 6.14674 129.962 8.66417 129.962Z" fill="white" stroke="black" stroke-width="1.39814" stroke-miterlimit="0" stroke-linecap="square" stroke-linejoin="round"/>
<path d="M61.7482 137.743C64.2656 137.743 66.3064 135.233 66.3064 132.136C66.3064 129.04 64.2656 126.53 61.7482 126.53C59.2307 126.53 57.1899 129.04 57.1899 132.136C57.1899 135.233 59.2307 137.743 61.7482 137.743Z" fill="white" stroke="black" stroke-width="1.39814" stroke-miterlimit="0" stroke-linecap="square" stroke-linejoin="round"/>
<path d="M65.3238 97.8237C67.8413 97.8237 69.8821 95.3137 69.8821 92.2173C69.8821 89.121 67.8413 86.6109 65.3238 86.6109C62.8064 86.6109 60.7656 89.121 60.7656 92.2173C60.7656 95.3137 62.8064 97.8237 65.3238 97.8237Z" fill="white" stroke="black" stroke-width="1.39814" stroke-miterlimit="0" stroke-linecap="square" stroke-linejoin="round"/>
<path d="M271.883 237.201C274.4 237.201 276.441 234.691 276.441 231.595C276.441 228.498 274.4 225.988 271.883 225.988C269.365 225.988 267.325 228.498 267.325 231.595C267.325 234.691 269.365 237.201 271.883 237.201Z" fill="white" stroke="black" stroke-width="1.39814" stroke-miterlimit="0" stroke-linecap="square" stroke-linejoin="round"/>
<path d="M278.614 89.119C281.132 89.119 283.173 86.6089 283.173 83.5126C283.173 80.4162 281.132 77.9061 278.614 77.9061C276.097 77.9061 274.056 80.4162 274.056 83.5126C274.056 86.6089 276.097 89.119 278.614 89.119Z" fill="white" stroke="black" stroke-width="1.39814" stroke-miterlimit="0" stroke-linecap="square" stroke-linejoin="round"/>
<path d="M238.733 91.1487C241.25 91.1487 243.291 88.6387 243.291 85.5423C243.291 82.446 241.25 79.9359 238.733 79.9359C236.216 79.9359 234.175 82.446 234.175 85.5423C234.175 88.6387 236.216 91.1487 238.733 91.1487Z" fill="white" stroke="black" stroke-width="1.39814" stroke-miterlimit="0" stroke-linecap="square" stroke-linejoin="round"/>
<path d="M213.979 144.938C216.497 144.938 218.537 142.428 218.537 139.332C218.537 136.235 216.497 133.725 213.979 133.725C211.462 133.725 209.421 136.235 209.421 139.332C209.421 142.428 211.462 144.938 213.979 144.938Z" fill="white" stroke="black" stroke-width="1.39814" stroke-miterlimit="0" stroke-linecap="square" stroke-linejoin="round"/>
<path d="M202.217 119.252C204.735 119.252 206.776 116.742 206.776 113.645C206.776 110.549 204.735 108.039 202.217 108.039C199.7 108.039 197.659 110.549 197.659 113.645C197.659 116.742 199.7 119.252 202.217 119.252Z" fill="white" stroke="black" stroke-width="1.39814" stroke-miterlimit="0" stroke-linecap="square" stroke-linejoin="round"/>
<path d="M31.7677 88.3511C34.2851 88.3511 36.3259 85.841 36.3259 82.7447C36.3259 79.6483 34.2851 77.1382 31.7677 77.1382C29.2503 77.1382 27.2095 79.6483 27.2095 82.7447C27.2095 85.841 29.2503 88.3511 31.7677 88.3511Z" fill="white" stroke="black" stroke-width="1.39814" stroke-miterlimit="0" stroke-linecap="square" stroke-linejoin="round"/>
<path d="M181.67 108.597C184.187 108.597 186.228 106.087 186.228 102.991C186.228 99.8943 184.187 97.3842 181.67 97.3842C179.153 97.3842 177.112 99.8943 177.112 102.991C177.112 106.087 179.153 108.597 181.67 108.597Z" fill="white" stroke="black" stroke-width="1.39814" stroke-miterlimit="0" stroke-linecap="square" stroke-linejoin="round"/>
<path d="M141.513 106.232C144.03 106.232 146.071 103.722 146.071 100.625C146.071 97.5291 144.03 95.019 141.513 95.019C138.995 95.019 136.955 97.5291 136.955 100.625C136.955 103.722 138.995 106.232 141.513 106.232Z" fill="white" stroke="black" stroke-width="1.39814" stroke-miterlimit="0" stroke-linecap="square" stroke-linejoin="round"/>
<path d="M151.369 146.115L148.406 151.937L159.222 155.231L151.369 146.115Z" fill="#DC1C11" stroke="#DC1C11" stroke-width="2.94342"/>
<path d="M281.193 183.321L282.505 181.265L268.994 176.239L267.682 178.295L281.193 183.321Z" fill="white"/>
<path d="M278.557 207.727L284.108 208.469L281.803 195.061L278.557 207.727Z" fill="#DC1C11" stroke="#DC1C11" stroke-width="2.94342"/>
<defs>
<filter id="filter0_d_6235_14685" x="-35.8022" y="0.906006" width="361.837" height="280.188" filterUnits="userSpaceOnUse" color-interpolation-filters="sRGB">
<feFlood flood-opacity="0" result="BackgroundImageFix"/>
<feColorMatrix in="SourceAlpha" type="matrix" values="0 0 0 0 0 0 0 0 0 0 0 0 0 0 0 0 0 0 127 0" result="hardAlpha"/>
<feOffset dy="12"/>
<feGaussianBlur stdDeviation="22"/>
<feColorMatrix type="matrix" values="0 0 0 0 0 0 0 0 0 0 0 0 0 0 0 0 0 0 0.25 0"/>
<feBlend mode="normal" in2="BackgroundImageFix" result="effect1_dropShadow_6235_14685"/>
<feBlend mode="normal" in="SourceGraphic" in2="effect1_dropShadow_6235_14685" result="shape"/>
</filter>
</defs>
</svg>
