<svg width="302" height="250" viewBox="0 0 302 250" fill="none" xmlns="http://www.w3.org/2000/svg">
<path d="M195.411 105.998C186.537 107.014 183.084 109.101 183.635 111.63C184.274 114.542 187.283 114.42 191.889 115.352C199.472 116.881 199.547 121.802 199.766 126.028C200.03 131.164 203.395 128.757 206.992 128.107" stroke="#999999" stroke-width="4" stroke-miterlimit="10"/>
<g filter="url(#filter0_d_6230_14398)">
<path d="M230.556 120.862C237.362 117.461 240.797 116.399 246.362 106.823C247.596 104.699 277.904 48.6352 279.733 45.1274C281.67 41.4133 283.525 38.6698 281.031 37.3247L266.071 30.3321C262.775 29.2698 262.186 30.034 259.548 35.0779C254.879 43.9964 242.219 65.7615 241.217 67.7102C240.546 69.017 237.613 74.9551 236.573 77.5916C235.921 79.25 235.313 81.0841 237.995 83.5143C238.96 84.3856 240.22 85.1804 242.696 86.8387C243.548 87.4119 244.513 89.995 242.696 93.1436C239.988 97.8359 238.71 99.2803 233.615 108.183C232.01 110.981 226.621 113.808 220.955 115.558C217.201 116.72 214.764 104.569 213.585 100.671C212.62 97.4843 199.999 112.945 176.234 103.483C159.959 96.9952 157.621 93.4569 140.519 86.4108C125.584 80.2511 115.2 78.9978 106.389 77.8515C94.4186 76.3001 91.448 76.9191 69.5637 86.0134C66.919 87.1138 66.988 89.4753 67.3139 90.6522C72.622 109.911 79.1961 126.937 78.8764 127.19L76.1691 141.748C75.9247 143.361 73.5996 144.003 72.0266 144.285C60.0128 146.433 42.1895 149.421 36.0854 150.437C34.3745 150.72 32.4882 150.659 31.9492 153.915C28.7405 173.242 27.5749 173.035 29.6868 179.05C30.4263 181.174 37.9029 202.955 39.5385 206.921C41.2682 211.101 44.126 210.138 47.2657 207.945C48.7698 206.898 87.387 184.369 92.0559 181.656C93.5663 180.777 96.8878 178.782 95.0829 174.258C91.4606 165.187 89.8813 160.739 88.6718 158.316C84.7047 150.346 82.7996 127.304 98.9559 119.028C115.858 110.377 125.258 119.93 132.666 127.648C138.883 134.121 140.606 135.986 141.841 139.501C144.097 145.921 143.978 147.892 147.13 146.784L230.556 120.862Z" fill="#C4C4C4" fill-opacity="0.1"/>
<path d="M230.556 120.862C237.362 117.461 240.797 116.399 246.362 106.823C247.596 104.699 277.904 48.6352 279.733 45.1274C281.67 41.4133 283.525 38.6698 281.031 37.3247L266.071 30.3321C262.775 29.2698 262.186 30.034 259.548 35.0779C254.879 43.9964 242.219 65.7615 241.217 67.7102C240.546 69.017 237.613 74.9551 236.573 77.5916C235.921 79.25 235.313 81.0841 237.995 83.5143C238.96 84.3856 240.22 85.1804 242.696 86.8387C243.548 87.4119 244.513 89.995 242.696 93.1436C239.988 97.8359 238.71 99.2803 233.615 108.183C232.01 110.981 226.621 113.808 220.955 115.558C217.201 116.72 214.764 104.569 213.585 100.671C212.62 97.4843 199.999 112.945 176.234 103.483C159.959 96.9952 157.621 93.4569 140.519 86.4108C125.584 80.2511 115.2 78.9978 106.389 77.8515C94.4186 76.3001 91.448 76.9191 69.5637 86.0134C66.919 87.1138 66.988 89.4753 67.3139 90.6522C72.622 109.911 79.1961 126.937 78.8764 127.19L76.1691 141.748C75.9247 143.361 73.5996 144.003 72.0266 144.285C60.0128 146.433 42.1895 149.421 36.0854 150.437C34.3745 150.72 32.4882 150.659 31.9492 153.915C28.7405 173.242 27.5749 173.035 29.6868 179.05C30.4263 181.174 37.9029 202.955 39.5385 206.921C41.2682 211.101 44.126 210.138 47.2657 207.945C48.7698 206.898 87.387 184.369 92.0559 181.656C93.5663 180.777 96.8878 178.782 95.0829 174.258C91.4606 165.187 89.8813 160.739 88.6718 158.316C84.7047 150.346 82.7996 127.304 98.9559 119.028C115.858 110.377 125.258 119.93 132.666 127.648C138.883 134.121 140.606 135.986 141.841 139.501C144.097 145.921 143.978 147.892 147.13 146.784L230.556 120.862Z" stroke="white" stroke-width="4" stroke-miterlimit="10"/>
</g>
<path d="M251.896 50.9586C252.591 49.7893 255.813 46.5337 256.74 45.6243C259.88 42.5292 263.277 33.3127 264.154 33.8018C264.9 34.2144 275.861 39.7933 276.487 40.0837C277.471 40.5269 277.358 41.4516 276.951 42.4298C275.829 45.1276 243.717 104.064 243.003 105.257C238.86 112.18 235.42 115.039 229.83 117.102C227.705 117.889 220.304 122.925 217.502 123.766" stroke="white" stroke-width="2.42" stroke-miterlimit="10"/>
<path d="M276.794 66.3121L280.792 69.5218L274.037 76.8354L276.794 66.3121Z" fill="#DC1C11"/>
<path d="M260.863 70.3473L263.514 72.3266L261.891 75.5669L259.24 73.5876L260.863 70.3473Z" fill="white"/>
<path d="M259.24 73.5876L261.891 75.567L260.268 78.8073L257.611 76.8203L259.24 73.5876Z" fill="white"/>
<path d="M257.611 76.8203L260.268 78.8073L258.645 82.04L255.988 80.0606L257.611 76.8203Z" fill="white"/>
<path d="M263.496 72.3112L266.147 74.2905L264.523 77.5308L261.873 75.5515L263.496 72.3112Z" fill="white"/>
<path d="M260.243 78.7842L262.9 80.7636L261.277 84.0039L258.62 82.0246L260.243 78.7842Z" fill="white"/>
<path d="M261.847 75.5285L264.504 77.5155L262.875 80.7482L260.224 78.7688L261.847 75.5285Z" fill="white"/>
<path d="M266.128 74.2756L268.778 76.2549L267.155 79.4952L264.504 77.5159L266.128 74.2756Z" fill="white"/>
<path d="M264.504 77.5159L267.155 79.4953L265.532 82.7279L262.875 80.7486L264.504 77.5159Z" fill="white"/>
<path d="M262.875 80.7486L265.532 82.7279L263.909 85.9682L261.252 83.9889L262.875 80.7486Z" fill="white"/>
<path d="M268.76 76.2394L271.411 78.2188L269.788 81.4514L267.137 79.4721L268.76 76.2394Z" fill="white"/>
<path d="M265.507 82.7125L268.165 84.6918L266.541 87.9321L263.884 85.9528L265.507 82.7125Z" fill="white"/>
<path d="M267.112 79.4567L269.769 81.4361L268.14 84.6764L265.489 82.697L267.112 79.4567Z" fill="white"/>
<path d="M271.399 78.0508L274.056 80.0301L272.433 83.2704L269.775 81.2911L271.399 78.0508Z" fill="white"/>
<path d="M269.775 81.2911L272.433 83.2705L270.81 86.5108L268.152 84.5314L269.775 81.2911Z" fill="white"/>
<path d="M268.152 84.5238L270.81 86.5108L269.186 89.7434L266.529 87.7641L268.152 84.5238Z" fill="white"/>
<path d="M241.643 131.551C244.134 131.551 246.154 129.087 246.154 126.048C246.154 123.009 244.134 120.545 241.643 120.545C239.152 120.545 237.132 123.009 237.132 126.048C237.132 129.087 239.152 131.551 241.643 131.551Z" fill="white"/>
<path d="M148.423 162.474C150.914 162.474 152.933 160.127 152.933 157.233C152.933 154.338 150.914 151.992 148.423 151.992C145.932 151.992 143.912 154.338 143.912 157.233C143.912 160.127 145.932 162.474 148.423 162.474Z" fill="white" stroke="white" stroke-width="0.61" stroke-miterlimit="10"/>
<path d="M144.342 135.22C146.951 135.22 149.067 132.639 149.067 129.455C149.067 126.271 146.951 123.69 144.342 123.69C141.732 123.69 139.616 126.271 139.616 129.455C139.616 132.639 141.732 135.22 144.342 135.22Z" fill="white" stroke="white" stroke-width="0.61" stroke-miterlimit="10"/>
<path d="M101.598 132.6C104.089 132.6 106.108 130.136 106.108 127.096C106.108 124.057 104.089 121.593 101.598 121.593C99.1064 121.593 97.0869 124.057 97.0869 127.096C97.0869 130.136 99.1064 132.6 101.598 132.6Z" fill="white" stroke="white" stroke-width="0.61" stroke-miterlimit="10"/>
<path d="M101.812 186.059C104.185 186.059 106.108 183.712 106.108 180.818C106.108 177.923 104.185 175.576 101.812 175.576C99.4399 175.576 97.5166 177.923 97.5166 180.818C97.5166 183.712 99.4399 186.059 101.812 186.059Z" fill="white" stroke="white" stroke-width="0.61" stroke-miterlimit="10"/>
<path d="M36.5151 223.795C38.8877 223.795 40.811 221.565 40.811 218.816C40.811 216.066 38.8877 213.836 36.5151 213.836C34.1426 213.836 32.2192 216.066 32.2192 218.816C32.2192 221.565 34.1426 223.795 36.5151 223.795Z" fill="white" stroke="white" stroke-width="0.61" stroke-miterlimit="10"/>
<path d="M19.7612 184.486C22.1338 184.486 24.0571 182.14 24.0571 179.245C24.0571 176.351 22.1338 174.004 19.7612 174.004C17.3887 174.004 15.4653 176.351 15.4653 179.245C15.4653 182.14 17.3887 184.486 19.7612 184.486Z" fill="white" stroke="white" stroke-width="0.61" stroke-miterlimit="10"/>
<path d="M28.7827 149.371C31.1552 149.371 33.0786 146.907 33.0786 143.868C33.0786 140.829 31.1552 138.365 28.7827 138.365C26.4101 138.365 24.4868 140.829 24.4868 143.868C24.4868 146.907 26.4101 149.371 28.7827 149.371Z" fill="white" stroke="white" stroke-width="0.61" stroke-miterlimit="10"/>
<path d="M65.9418 142.034C68.433 142.034 70.4525 139.57 70.4525 136.53C70.4525 133.491 68.433 131.027 65.9418 131.027C63.4506 131.027 61.4312 133.491 61.4312 136.53C61.4312 139.57 63.4506 142.034 65.9418 142.034Z" fill="white" stroke="white" stroke-width="0.61" stroke-miterlimit="10"/>
<path d="M68.9491 125.262C71.4403 125.262 73.4598 122.916 73.4598 120.021C73.4598 117.126 71.4403 114.78 68.9491 114.78C66.458 114.78 64.4385 117.126 64.4385 120.021C64.4385 122.916 66.458 125.262 68.9491 125.262Z" fill="white" stroke="white" stroke-width="0.61" stroke-miterlimit="10"/>
<path d="M58.4243 92.2432C60.7968 92.2432 62.7202 90.014 62.7202 87.2642C62.7202 84.5143 60.7968 82.2852 58.4243 82.2852C56.0517 82.2852 54.1284 84.5143 54.1284 87.2642C54.1284 90.014 56.0517 92.2432 58.4243 92.2432Z" fill="white" stroke="white" stroke-width="0.61" stroke-miterlimit="10"/>
<path d="M118.566 74.9476C120.939 74.9476 122.862 72.6011 122.862 69.7065C122.862 66.8119 120.939 64.4654 118.566 64.4654C116.194 64.4654 114.271 66.8119 114.271 69.7065C114.271 72.6011 116.194 74.9476 118.566 74.9476Z" fill="white" stroke="white" stroke-width="0.61" stroke-miterlimit="10"/>
<path d="M181.716 101.677C184.325 101.677 186.441 99.2133 186.441 96.174C186.441 93.1347 184.325 90.6709 181.716 90.6709C179.106 90.6709 176.99 93.1347 176.99 96.174C176.99 99.2133 179.106 101.677 181.716 101.677Z" fill="white" stroke="white" stroke-width="0.61" stroke-miterlimit="10"/>
<path d="M208.35 95.9119C210.723 95.9119 212.646 93.5654 212.646 90.6708C212.646 87.7763 210.723 85.4297 208.35 85.4297C205.978 85.4297 204.054 87.7763 204.054 90.6708C204.054 93.5654 205.978 95.9119 208.35 95.9119Z" fill="white" stroke="white" stroke-width="0.61" stroke-miterlimit="10"/>
<path d="M288.039 36.6876C290.53 36.6876 292.549 34.2238 292.549 31.1845C292.549 28.1452 290.53 25.6813 288.039 25.6813C285.547 25.6813 283.528 28.1452 283.528 31.1845C283.528 34.2238 285.547 36.6876 288.039 36.6876Z" fill="white" stroke="white" stroke-width="0.61" stroke-miterlimit="10"/>
<path d="M206.847 118.973C209.101 118.973 210.928 116.744 210.928 113.994C210.928 111.244 209.101 109.015 206.847 109.015C204.593 109.015 202.766 111.244 202.766 113.994C202.766 116.744 204.593 118.973 206.847 118.973Z" fill="white" stroke="white" stroke-width="0.61" stroke-miterlimit="10"/>
<path d="M233.481 99.5807C235.735 99.5807 237.562 97.3515 237.562 94.6017C237.562 91.8518 235.735 89.6226 233.481 89.6226C231.227 89.6226 229.4 91.8518 229.4 94.6017C229.4 97.3515 231.227 99.5807 233.481 99.5807Z" fill="white" stroke="white" stroke-width="0.61" stroke-miterlimit="10"/>
<path d="M224.245 81.2369C226.617 81.2369 228.54 78.8904 228.54 75.9958C228.54 73.1012 226.617 70.7547 224.245 70.7547C221.872 70.7547 219.949 73.1012 219.949 75.9958C219.949 78.8904 221.872 81.2369 224.245 81.2369Z" fill="white" stroke="white" stroke-width="0.61" stroke-miterlimit="10"/>
<path d="M260.115 25.6813C262.606 25.6813 264.626 23.2175 264.626 20.1782C264.626 17.1389 262.606 14.675 260.115 14.675C257.624 14.675 255.604 17.1389 255.604 20.1782C255.604 23.2175 257.624 25.6813 260.115 25.6813Z" fill="white" stroke="white" stroke-width="0.61" stroke-miterlimit="10"/>
<defs>
<filter id="filter0_d_6230_14398" x="-17.3794" y="-4.08383" width="345.614" height="271.907" filterUnits="userSpaceOnUse" color-interpolation-filters="sRGB">
<feFlood flood-opacity="0" result="BackgroundImageFix"/>
<feColorMatrix in="SourceAlpha" type="matrix" values="0 0 0 0 0 0 0 0 0 0 0 0 0 0 0 0 0 0 127 0" result="hardAlpha"/>
<feOffset dy="12"/>
<feGaussianBlur stdDeviation="22"/>
<feColorMatrix type="matrix" values="0 0 0 0 0 0 0 0 0 0 0 0 0 0 0 0 0 0 0.25 0"/>
<feBlend mode="normal" in2="BackgroundImageFix" result="effect1_dropShadow_6230_14398"/>
<feBlend mode="normal" in="SourceGraphic" in2="effect1_dropShadow_6230_14398" result="shape"/>
</filter>
</defs>
</svg>
